<?xml version="1.0" encoding="UTF-8" standalone="no"?>
<!-- Created with Inkscape (http://www.inkscape.org/) -->

<svg
   xmlns:dc="http://purl.org/dc/elements/1.1/"
   xmlns:cc="http://creativecommons.org/ns#"
   xmlns:rdf="http://www.w3.org/1999/02/22-rdf-syntax-ns#"
   xmlns:svg="http://www.w3.org/2000/svg"
   xmlns="http://www.w3.org/2000/svg"
   xmlns:sodipodi="http://sodipodi.sourceforge.net/DTD/sodipodi-0.dtd"
   xmlns:inkscape="http://www.inkscape.org/namespaces/inkscape"
   width="491.4574"
   height="170"
   id="svg2985"
   version="1.1"
   inkscape:version="0.92.3 (2405546, 2018-03-11)"
   sodipodi:docname="bonsai-lettering.svg"
   inkscape:export-filename="Bonsai.png"
   inkscape:export-xdpi="1034.1727"
   inkscape:export-ydpi="1034.1727">
  <defs
     id="defs2987" />
  <sodipodi:namedview
     id="base"
     pagecolor="#474747"
     bordercolor="#666666"
     borderopacity="1.0"
     inkscape:pageopacity="0"
     inkscape:pageshadow="2"
     inkscape:zoom="2.8284271"
     inkscape:cx="348.72601"
     inkscape:cy="-31.648597"
     inkscape:document-units="mm"
     inkscape:current-layer="layer2"
     showgrid="false"
     inkscape:window-width="3000"
     inkscape:window-height="1875"
     inkscape:window-x="-13"
     inkscape:window-y="-13"
     inkscape:window-maximized="1"
     units="px"
     showguides="true"
     inkscape:guide-bbox="true"
     fit-margin-top="10"
     fit-margin-left="10"
     fit-margin-right="10"
     fit-margin-bottom="10">
    <sodipodi:guide
       orientation="0,1"
       position="-3.519531,49.305287"
       id="guide4444"
       inkscape:locked="false"
       inkscape:label=""
       inkscape:color="rgb(0,0,255)" />
    <sodipodi:guide
       orientation="1,0"
       position="75.25,80.032826"
       id="guide4446"
       inkscape:locked="false"
       inkscape:label=""
       inkscape:color="rgb(0,0,255)" />
  </sodipodi:namedview>
  <metadata
     id="metadata2990">
    <rdf:RDF>
      <cc:Work
         rdf:about="">
        <dc:format>image/svg+xml</dc:format>
        <dc:type
           rdf:resource="http://purl.org/dc/dcmitype/StillImage" />
        <dc:title></dc:title>
      </cc:Work>
    </rdf:RDF>
  </metadata>
  <g
     inkscape:groupmode="layer"
     id="layer2"
     inkscape:label="Layer 1"
     transform="translate(60.25,105.69471)">
    <g
       id="g45"
       transform="matrix(5,0,0,5,-50.25,-95.694625)">
      <circle
         r="15"
         cy="14.999983"
         cx="15"
         id="path1206"
         style="fill:#ec2227;stroke-width:2" />
      <path
         inkscape:connector-curvature="0"
         id="path1082"
         d="M 12.261719,3.3691406 C 10.629678,3.3691406 9.2682741,4.5306656 8.9609375,6.0722656 8.710026,5.9336656 8.4207229,5.8580406 8.1113281,5.8691406 7.2755851,5.8997406 6.5846829,6.5771094 6.5390625,7.4121094 6.4876112,8.356809 7.2383742,9.138672 8.171875,9.138672 8.6772998,9.138672 9.1297256,8.909128 9.4296875,8.548828 9.8039131,9.131328 10.352292,9.592669 11.001953,9.855469 11.000923,9.877269 11,9.897922 11,9.919922 10.544312,9.632822 10.004099,9.466797 9.4257812,9.466797 7.7930554,9.466797 6.4707031,10.789375 6.4707031,12.421875 6.4707031,12.451775 6.4718031,12.482315 6.4726531,12.511715 6.1874406,12.433515 5.8793713,12.407568 5.5605438,12.451165 4.4905251,12.597765 3.6652442,13.503124 3.6132781,14.582024 3.5899531,15.068424 3.7193891,15.523637 3.9589813,15.902337 3.5960771,16.139237 3.3655721,16.559896 3.4003875,17.033196 3.4458365,17.647896 3.9546071,18.144074 4.5703094,18.175774 5.2786243,18.212174 5.8653926,17.654824 5.8749969,16.957024 6.1753018,16.956824 6.4605939,16.897304 6.7226531,16.791009 7.323949,16.628409 8.7246819,16.338049 10.035153,16.722649 11.161768,17.053349 12.032703,18.191984 12.048825,18.212884 12.528525,19.216884 14.034301,19.88229 14.0957,20.52929 14.284698,22.52419 9.8150891,23.207971 7.2871063,23.892571 11.748184,27.635871 18.25181,27.557746 22.712888,23.814441 22.712888,23.814441 17.706846,23.155079 16.695309,20.337879 15.933828,18.216979 14.069357,17.995257 14.062497,17.230457 14.051697,16.037957 16.05756,16.009857 16.093747,14.542957 16.098547,14.348557 16.075457,14.174419 16.035157,14.019519 16.676928,13.964619 17.264205,13.720838 17.742189,13.343738 17.747689,13.354938 17.754279,13.365738 17.759769,13.376938 17.378171,13.666238 17.153218,14.151279 17.238284,14.683579 17.331414,15.265979 17.806311,15.727526 18.390628,15.806626 18.967741,15.884626 19.48417,15.599522 19.750003,15.148423 20.137604,15.290023 20.557493,15.367173 20.994144,15.367173 22.757385,15.367173 24.225202,14.108438 24.548831,12.439438 25.359706,12.310938 25.968834,11.572369 25.890628,10.708969 25.822708,9.959469 25.220763,9.348663 24.472659,9.267563 24.206141,9.238763 23.952132,9.277023 23.722659,9.365219 23.058592,8.604619 22.0832,8.123032 20.994144,8.123032 20.018797,8.123032 19.133629,8.509904 18.482425,9.136704 18.058637,8.456004 17.387306,7.9457069 16.593753,7.7324069 17.052872,7.5005069 17.36921,7.0256475 17.371097,6.4765475 17.373697,5.7332475 16.819028,5.1260381 16.078128,5.0644381 15.785197,5.0399381 15.510356,5.1060131 15.275394,5.2363131 14.724349,4.1291131 13.58248,3.3691256 12.261722,3.3691256 Z M 14.435547,14.019531 C 14.460417,14.120331 14.476567,14.22775 14.476557,14.34375 14.476557,14.95285 12.900238,15.512469 12.216792,16.605469 11.783056,16.253769 11.265111,15.916759 10.732417,15.755859 9.800802,15.474159 8.5891005,15.578175 7.9140575,15.671879 8.0042695,15.483579 8.0701338,15.27921 8.1054638,15.06641 8.5033549,15.26581 8.9505365,15.37891 9.4257762,15.37891 10.385005,15.37891 11.237269,14.922948 11.777339,14.214848 12.123092,14.440348 12.534999,14.570316 12.978511,14.570316 13.537102,14.570316 14.047254,14.362135 14.435542,14.019535 Z"
         style="fill:#ffffff;stroke-width:0.17150483" />
    </g>
    <path
       style="fill:#000000;stroke-width:0.39982989"
       id="path1342"
       d="M 136.32205,36.26226 132.23629,26.372715 H 130.79316 L 135.7348,37.936545 H 136.87806 L 141.81346,26.372715 H 140.42031 Z M 136.32205,36.26226"
       inkscape:connector-curvature="0" />
    <path
       style="fill:#000000;stroke-width:0.39982989"
       id="path1330"
       d="M 144.20767,26.372715 V 37.85533 H 145.50711 V 26.372715 Z M 144.20767,26.372715"
       inkscape:connector-curvature="0" />
    <path
       style="fill:#000000;stroke-width:0.39982989"
       id="path1350"
       d="M 149.88303,29.24649 C 149.88303,28.19694 150.83262,27.378535 152.32574,27.378535 153.50649,27.378535 154.57478,27.753385 155.63683,28.62176 L 156.39276,27.622185 C 155.23075,26.68508 154.03126,26.210285 152.35698,26.210285 150.17665,26.210285 148.58983,27.522225 148.58983,29.358945 148.58983,31.264385 149.80181,32.114025 152.44444,32.68878 154.84967,33.194815 155.42442,33.80705 155.42442,34.88784 155.42442,36.04985 154.41235,36.855755 152.86926,36.855755 151.27619,36.855755 150.12667,36.312235 148.93343,35.231445 L 148.12752,36.18104 C 149.50819,37.41177 151.0013,38.01776 152.81928,38.01776 155.09956,38.01776 156.73636,36.737055 156.73636,34.75665 156.73636,32.982405 155.55562,32.05155 153.00045,31.48929 150.47652,30.952015 149.88303,30.346025 149.88303,29.24649 Z M 149.88303,29.24649"
       inkscape:connector-curvature="0" />
    <path
       style="fill:#000000;stroke-width:0.39982989"
       id="path1354"
       d="M 168.7719,26.372715 H 167.4787 V 33.051125 C 167.4787,35.55631 166.13552,36.837015 164.01767,36.837015 161.8186,36.837015 160.50666,35.443855 160.50666,32.96991 V 26.372715 H 159.21346 V 33.051125 C 159.21346,36.29974 161.15014,38.036505 163.98643,38.036505 166.85396,38.036505 168.7719,36.29974 168.7719,32.951165 Z M 168.7719,26.372715"
       inkscape:connector-curvature="0" />
    <path
       style="fill:#000000;stroke-width:0.39982989"
       id="path1314"
       d="M 176.90579,26.2915 H 175.6938 L 170.45853,37.85533 H 171.78922 L 173.15114,34.81912 H 179.39848 L 180.74166,37.85533 H 182.13481 Z M 178.89244,33.657115 H 173.65717 L 176.28106,27.803355 Z M 178.89244,33.657115"
       inkscape:connector-curvature="0" />
    <path
       style="fill:#000000;stroke-width:0.39982989"
       id="path1326"
       d="M 184.41651,37.85533 H 192.17571 V 36.65584 H 185.70971 V 26.372715 H 184.41651 Z M 184.41651,37.85533"
       inkscape:connector-curvature="0" />
    <path
       style="fill:#000000;stroke-width:0.39982989"
       id="path1406"
       d="M 209.01512,37.85533 205.48538,33.163575 C 207.29086,32.838725 208.6028,31.72044 208.6028,29.802505 208.6028,27.734635 206.97849,26.372715 204.45457,26.372715 H 199.51917 V 37.85533 H 200.81236 V 33.39473 H 204.09222 L 207.42205,37.85533 Z M 207.29086,29.852485 C 207.29086,31.3456 206.06013,32.23272 204.34211,32.23272 H 200.81236 V 27.572205 H 204.35461 C 206.21007,27.572205 207.29086,28.42809 207.29086,29.852485 Z M 207.29086,29.852485"
       inkscape:connector-curvature="0" />
    <path
       style="fill:#000000;stroke-width:0.39982989"
       id="path1398"
       d="M 219.68786,26.372715 H 211.39139 V 37.85533 H 219.76907 V 36.67458 H 212.68459 V 32.65754 H 218.95067 V 31.476795 H 212.68459 V 27.553465 H 219.68786 Z M 219.68786,26.372715"
       inkscape:connector-curvature="0" />
    <path
       style="fill:#000000;stroke-width:0.39982989"
       id="path1318"
       d="M 227.85469,26.2915 H 226.64271 L 221.40744,37.85533 H 222.73812 L 224.10004,34.81912 H 230.34738 L 231.69056,37.85533 H 233.08372 Z M 229.84135,33.657115 H 224.60608 L 227.22996,27.803355 Z M 229.84135,33.657115"
       inkscape:connector-curvature="0" />
    <path
       style="fill:#000000;stroke-width:0.39982989"
       id="path1418"
       d="M 244.53266,36.037355 243.67677,35.20021 C 242.58349,36.249765 241.54643,36.855755 239.9721,36.855755 237.44817,36.855755 235.53024,34.769145 235.53024,32.10153 235.53024,29.427665 237.42943,27.378535 239.9721,27.378535 241.53393,27.378535 242.61472,28.03451 243.58306,28.952865 L 244.46394,27.997025 C 243.32067,26.916235 242.0712,26.179045 239.99084,26.179045 236.61103,26.179045 234.18706,28.85291 234.18706,32.132765 234.18706,35.443855 236.62977,38.055245 239.94086,38.055245 242.02123,38.055245 243.33317,37.24934 244.53266,36.037355 Z M 244.53266,36.037355"
       inkscape:connector-curvature="0" />
    <path
       style="fill:#000000;stroke-width:0.39982989"
       id="path1386"
       d="M 251.15943,27.572205 H 255.00779 V 26.372715 H 245.99288 V 27.572205 H 249.84749 V 37.85533 H 251.15943 Z M 251.15943,27.572205"
       inkscape:connector-curvature="0" />
    <path
       style="fill:#000000;stroke-width:0.39982989"
       id="path1334"
       d="M 257.5661,26.372715 V 37.85533 H 258.86555 V 26.372715 Z M 257.5661,26.372715"
       inkscape:connector-curvature="0" />
    <path
       style="fill:#000000;stroke-width:0.39982989"
       id="path1346"
       d="M 266.78372,36.26226 262.69795,26.372715 H 261.25482 L 266.19646,37.936545 H 267.33973 L 272.27513,26.372715 H 270.88197 Z M 266.78372,36.26226"
       inkscape:connector-curvature="0" />
    <path
       style="fill:#000000;stroke-width:0.39982989"
       id="path1402"
       d="M 282.85334,26.372715 H 274.55687 V 37.85533 H 282.93455 V 36.67458 H 275.85007 V 32.65754 H 282.11615 V 31.476795 H 275.85007 V 27.553465 H 282.85334 Z M 282.85334,26.372715"
       inkscape:connector-curvature="0" />
    <path
       style="fill:#000000;stroke-width:0.39982989"
       id="path1370"
       d="M 299.08593,30.03366 C 299.08593,27.75338 297.38041,26.372715 294.79401,26.372715 H 290.49584 V 37.85533 H 291.78904 V 33.80705 H 294.5816 C 297.02431,33.80705 299.08593,32.526345 299.08593,30.03366 Z M 297.774,30.08366 C 297.774,31.608015 296.53077,32.62633 294.62533,32.62633 H 291.78904 V 27.57223 H 294.69405 C 296.54951,27.57223 297.774,28.428115 297.774,30.08366 Z M 297.774,30.08366"
       inkscape:connector-curvature="0" />
    <path
       style="fill:#000000;stroke-width:0.39982989"
       id="path1410"
       d="M 310.96212,37.85533 307.43237,33.163575 C 309.23785,32.838725 310.5498,31.72044 310.5498,29.802505 310.5498,27.734635 308.92548,26.372715 306.40156,26.372715 H 301.46616 V 37.85533 H 302.75936 V 33.39473 H 306.03922 L 309.36905,37.85533 Z M 309.23785,29.852485 C 309.23785,31.3456 308.00712,32.23272 306.2891,32.23272 H 302.75936 V 27.572205 H 306.3016 C 308.15706,27.572205 309.23785,28.42809 309.23785,29.852485 Z M 309.23785,29.852485"
       inkscape:connector-curvature="0" />
    <path
       style="fill:#000000;stroke-width:0.39982989"
       id="path1366"
       d="M 324.53987,32.10153 C 324.53987,28.915385 322.19087,26.179045 318.69861,26.179045 315.20634,26.179045 312.83235,28.952865 312.83235,32.132765 312.83235,35.31266 315.17511,38.055245 318.66737,38.055245 322.15963,38.055245 324.53987,35.281425 324.53987,32.10153 Z M 323.19669,32.13253 C 323.19669,34.756415 321.32249,36.85552 318.69861,36.85552 316.07472,36.85552 314.17554,34.725175 314.17554,32.101295 314.17554,29.47741 316.04349,27.3783 318.66737,27.3783 321.29125,27.3783 323.19669,29.508645 323.19669,32.13253 Z M 323.19669,32.13253"
       inkscape:connector-curvature="0" />
    <path
       style="fill:#000000;stroke-width:0.39982989"
       id="path1374"
       d="M 337.23273,36.29974 V 31.72044 H 332.491 V 32.888695 H 335.98326 V 35.73748 C 335.1961,36.380955 333.98411,36.88699 332.67217,36.88699 329.88585,36.88699 328.13035,34.856605 328.13035,32.10153 328.13035,29.521375 329.94833,27.378535 332.491,27.378535 334.11531,27.378535 335.09614,27.91581 335.98326,28.69048 L 336.8204,27.7034 C 335.67089,26.73506 334.47765,26.179045 332.54097,26.179045 329.09869,26.179045 326.78717,28.96536 326.78717,32.132765 326.78717,35.425115 329.01747,38.055245 332.62219,38.055245 334.55887,38.055245 336.16444,37.24934 337.23273,36.29974 Z M 337.23273,36.29974"
       inkscape:connector-curvature="0" />
    <path
       style="fill:#000000;stroke-width:0.39982989"
       id="path1414"
       d="M 349.66165,37.85533 346.13191,33.163575 C 347.93739,32.838725 349.24933,31.72044 349.24933,29.802505 349.24933,27.734635 347.62502,26.372715 345.10109,26.372715 H 340.1657 V 37.85533 H 341.45889 V 33.39473 H 344.73875 L 348.06858,37.85533 Z M 347.93739,29.852485 C 347.93739,31.3456 346.70666,32.23272 344.98864,32.23272 H 341.45889 V 27.572205 H 345.00113 C 346.85659,27.572205 347.93739,28.42809 347.93739,29.852485 Z M 347.93739,29.852485"
       inkscape:connector-curvature="0" />
    <path
       style="fill:#000000;stroke-width:0.39982989"
       id="path1322"
       d="M 357.49806,26.2915 H 356.28607 L 351.0508,37.85533 H 352.38149 L 353.74341,34.81912 H 359.99075 L 361.33393,37.85533 H 362.72708 Z M 359.48471,33.657115 H 354.24945 L 356.87333,27.803355 Z M 359.48471,33.657115"
       inkscape:connector-curvature="0" />
    <path
       style="fill:#000000;stroke-width:0.39982989"
       id="path1358"
       d="M 374.69843,28.559285 V 37.85533 H 375.99788 V 26.372715 H 374.68593 L 370.50022,32.6388 366.32074,26.372715 H 365.0088 V 37.85533 H 366.27076 V 28.57178 L 370.45024,34.70667 H 370.51894 Z M 374.69843,28.559285"
       inkscape:connector-curvature="0" />
    <path
       style="fill:#000000;stroke-width:0.39982989"
       id="path1362"
       d="M 388.94841,28.559285 V 37.85533 H 390.24786 V 26.372715 H 388.93592 L 384.7502,32.6388 380.57072,26.372715 H 379.25878 V 37.85533 H 380.52074 V 28.57178 L 384.70022,34.70667 H 384.76892 Z M 388.94841,28.559285"
       inkscape:connector-curvature="0" />
    <path
       style="fill:#000000;stroke-width:0.39982989"
       id="path1338"
       d="M 393.62117,26.372715 V 37.85533 H 394.92062 V 26.372715 Z M 393.62117,26.372715"
       inkscape:connector-curvature="0" />
    <path
       style="fill:#000000;stroke-width:0.39982989"
       id="path1382"
       d="M 406.74337,35.57505 399.50895,26.372715 H 398.29696 V 37.85533 H 399.55892 V 28.440585 L 406.97452,37.85533 H 408.00533 V 26.372715 H 406.74337 Z M 406.74337,35.57505"
       inkscape:connector-curvature="0" />
    <path
       style="fill:#000000;stroke-width:0.39982989"
       id="path1378"
       d="M 421.2074,36.29974 V 31.72044 H 416.46567 V 32.888695 H 419.95794 V 35.73748 C 419.17077,36.380955 417.95878,36.88699 416.64684,36.88699 413.86053,36.88699 412.10503,34.856605 412.10503,32.10153 412.10503,29.521375 413.923,27.378535 416.46567,27.378535 418.08998,27.378535 419.07081,27.91581 419.95794,28.69048 L 420.79508,27.7034 C 419.64557,26.73506 418.45232,26.179045 416.51565,26.179045 413.07336,26.179045 410.76185,28.96536 410.76185,32.132765 410.76185,35.425115 412.99215,38.055245 416.59686,38.055245 418.53354,38.055245 420.13911,37.24934 421.2074,36.29974 Z M 421.2074,36.29974"
       inkscape:connector-curvature="0" />
    <path
       inkscape:connector-curvature="0"
       style="fill:#000000;stroke-width:0.39982992"
       d="M 159.62758,2.53283 C 161.93754,2.53283 164.12567,2.09383 166.19198,1.21633 168.25829,0.33883 170.06065,-0.87317 171.60218,-2.41967 173.14371,-3.96417 174.34945,-5.77267 175.22564,-7.84567 176.10026,-9.91817 176.53914,-12.11417 176.53914,-14.43167 176.53914,-16.74967 176.10027,-18.94517 175.22564,-21.01817 174.34945,-23.08717 173.14371,-24.89767 171.60218,-26.44367 170.06065,-27.98867 168.25829,-29.20067 166.19198,-30.07967 164.12567,-30.95767 161.93754,-31.39617 159.62758,-31.39617 157.31606,-31.39617 155.12638,-30.95767 153.06163,-30.07967 150.99531,-29.20067 149.1914,-27.98867 147.65143,-26.44367 146.10989,-24.89767 144.88542,-23.10617 143.97486,-21.06967 143.06432,-19.03117 142.60982,-16.85417 142.60982,-14.53767 V -14.43167 C 142.60982,-12.11417 143.06432,-9.91817 143.97486,-7.84567 144.88542,-5.77267 146.10989,-3.96417 147.65143,-2.41967 149.1914,-0.87317 150.99531,0.33883 153.06163,1.21633 155.12638,2.09383 157.31606,2.53283 159.62758,2.53283 M 159.57448,-42.24967 C 163.43689,-42.24967 167.05567,-41.52817 170.42768,-40.08967 173.79968,-38.64817 176.74998,-36.66467 179.2786,-34.13567 181.80721,-31.60717 183.79231,-28.65667 185.23232,-25.28467 186.67233,-21.91267 187.39233,-18.29417 187.39233,-14.43167 187.39233,-10.56767 186.67233,-6.95067 185.23232,-3.57867 183.79231,-0.20667 181.80721,2.74383 179.2786,5.27233 176.74998,7.80083 173.79968,9.78633 170.42768,11.22433 167.05567,12.66633 163.43689,13.38633 159.57448,13.38633 155.7105,13.38633 152.09328,12.66633 148.72128,11.22433 145.35084,9.78633 142.39897,7.80083 139.87036,5.27233 137.34174,2.74383 135.35666,-0.20667 133.91664,-3.57867 132.47663,-6.95067 131.75663,-10.56767 131.75663,-14.43167 V -78.43417 C 131.75663,-78.99167 132.20958,-79.44467 132.76713,-79.44467 H 141.59775 C 142.1569,-79.44467 142.60982,-78.99017 142.60826,-78.43117 L 142.50986,-38.41817 C 142.50674,-37.61717 143.4001,-37.12517 144.06857,-37.56867 146.02868,-38.86967 148.14184,-39.92067 150.4065,-40.72217 153.28652,-41.73867 156.34303,-42.24967 159.57448,-42.24967"
       id="path1261-6" />
    <path
       inkscape:connector-curvature="0"
       style="fill:#000000;stroke-width:0.39982992"
       d="M 219.37404,2.42833 C 221.684,2.42833 223.87213,1.98933 225.93844,1.11033 228.00474,0.23233 229.80711,-0.97967 231.34863,-2.52567 232.89016,-4.06917 234.0959,-5.87917 234.97209,-7.95167 235.84672,-10.02267 236.2856,-12.21867 236.2856,-14.53767 236.2856,-16.85567 235.84672,-19.05017 234.97209,-21.12267 234.0959,-23.19367 232.89016,-25.00217 231.34863,-26.54867 229.80711,-28.09467 228.00474,-29.30517 225.93844,-30.18417 223.87213,-31.06367 221.684,-31.50117 219.37404,-31.50117 217.06253,-31.50117 214.87284,-31.06367 212.80809,-30.18417 210.74178,-29.30517 208.93786,-28.09467 207.39789,-26.54867 205.85635,-25.00217 204.63188,-23.19367 203.72133,-21.12267 202.81078,-19.05017 202.35628,-16.85567 202.35628,-14.53767 202.35628,-12.21867 202.81078,-10.02267 203.72133,-7.95167 204.63188,-5.87917 205.85635,-4.06917 207.39789,-2.52567 208.93786,-0.97967 210.74178,0.23233 212.80809,1.11033 214.87284,1.98933 217.06253,2.42833 219.37404,2.42833 M 219.32094,-42.35417 C 223.18336,-42.35417 226.80213,-41.63267 230.17414,-40.19567 233.54614,-38.75417 236.49644,-36.77067 239.02506,-34.24217 241.55523,-31.71167 243.53876,-28.76317 244.97877,-25.38967 246.41878,-22.01917 247.1388,-18.39867 247.1388,-14.53767 247.1388,-10.67417 246.41878,-7.05517 244.97877,-3.68317 243.53876,-0.31267 241.55523,2.63783 239.02506,5.16783 236.49644,7.69633 233.54614,9.68133 230.17414,11.11983 226.80213,12.56133 223.18336,13.27983 219.32094,13.27983 215.45695,13.27983 211.83975,12.56133 208.4693,11.11983 205.0973,9.68133 202.14543,7.69633 199.61682,5.16783 197.0882,2.63783 195.10312,-0.31267 193.66311,-3.68317 192.22309,-7.05517 191.50308,-10.67417 191.50308,-14.53767 191.50308,-18.39867 192.22309,-22.01917 193.66311,-25.38967 195.10312,-28.76317 197.0882,-31.71167 199.61682,-34.24217 202.14543,-36.77067 205.0973,-38.75417 208.4693,-40.19567 211.83975,-41.63267 215.45695,-42.35417 219.32094,-42.35417"
       id="path1263-6" />
    <path
       inkscape:connector-curvature="0"
       style="fill:#000000;stroke-width:0.39982992"
       d="M 289.37239,-38.66667 C 292.71158,-36.41767 295.35421,-33.52067 297.3034,-29.97517 299.251,-26.42517 300.22559,-22.54567 300.22559,-18.33017 V 12.37433 C 300.22559,12.93333 299.77424,13.38633 299.2151,13.38633 H 290.3829 C 289.82533,13.38633 289.37239,12.93333 289.37239,12.37433 V -18.33017 C 289.37239,-20.15717 289.01784,-21.89417 288.31347,-23.54667 287.60908,-25.19567 286.63918,-26.63567 285.40377,-27.86517 284.16991,-29.09417 282.7424,-30.06117 281.11964,-30.76367 279.49846,-31.46517 277.77264,-31.81667 275.93749,-31.81667 274.10389,-31.81667 272.35619,-31.46517 270.70064,-30.76367 269.04354,-30.06117 267.61446,-29.09417 266.41654,-27.86517 265.21861,-26.63567 264.26432,-25.19567 263.55993,-23.54667 262.85555,-21.89417 262.50257,-20.15717 262.50257,-18.33017 V 12.37433 C 262.50257,12.93333 262.05122,13.38633 261.49207,13.38633 H 252.65989 C 252.1023,13.38633 251.64937,12.93333 251.64937,12.37433 V -41.66067 C 251.64937,-42.21967 252.10232,-42.67117 252.65989,-42.67117 H 261.51236 C 262.06369,-42.67117 262.51194,-42.23067 262.52443,-41.68117 L 262.54944,-40.42517 C 262.56493,-39.66467 263.38502,-39.19167 264.04724,-39.56317 265.54191,-40.40667 267.14592,-41.09067 268.85926,-41.61717 271.14578,-42.31817 273.5182,-42.67117 275.97809,-42.67117 278.43799,-42.67117 280.81354,-42.31817 283.09851,-41.61717 285.38347,-40.91417 287.47321,-39.93167 289.37241,-38.66667"
       id="path1265-3" />
    <path
       inkscape:connector-curvature="0"
       style="fill:#000000;stroke-width:0.39982992"
       d="M 337.07399,-12.46867 C 337.09449,-12.44367 337.1145,-12.41517 337.13175,-12.39017 338.10165,-10.99417 338.86537,-9.48067 339.42298,-7.84567 339.98366,-6.19467 340.22888,-4.45617 340.16013,-2.63067 340.08983,-0.31267 339.56351,1.83183 338.57957,3.79633 337.59559,5.76433 336.29614,7.48533 334.68123,8.95983 333.06471,10.43583 331.16709,11.57733 328.98989,12.38483 326.81269,13.19383 324.52931,13.56083 322.14125,13.49083 318.7708,13.34883 315.73149,12.47383 313.02793,10.85733 310.60707,9.41283 308.70789,7.54633 307.32879,5.25533 307.05389,4.80083 307.18199,4.20733 307.61774,3.90283 L 314.91151,-1.18567 C 315.40661,-1.53117 316.0735,-1.34017 316.35462,-0.80767 316.77632,-0.00367 317.40733,0.70583 318.2429,1.32083 319.43771,2.20033 320.84024,2.63783 322.45675,2.63783 324.28409,2.70783 325.88185,2.20033 327.25159,1.11183 328.62128,0.02133 329.30696,-1.32967 329.30696,-2.94617 329.30696,-3.43617 329.27096,-3.78917 329.20231,-4.00017 V -4.21117 C 329.13045,-4.35167 329.09605,-4.47517 329.09605,-4.57967 329.09605,-4.68417 329.06006,-4.80767 328.98986,-4.94817 328.49786,-6.14317 327.58577,-7.12567 326.25198,-7.89867 326.04113,-8.03917 325.72405,-8.17967 325.30394,-8.32017 L 325.40859,-8.42667 C 324.42309,-8.98717 323.33609,-9.53217 322.14126,-10.05867 320.94645,-10.58667 319.73448,-11.14717 318.50689,-11.74517 317.27613,-12.34017 316.06417,-12.97467 314.87092,-13.64117 313.6761,-14.30817 312.55314,-15.09867 311.49891,-16.01217 V -16.11867 L 311.18346,-16.43417 C 309.70749,-17.83817 308.54863,-19.47167 307.70678,-21.33367 306.86342,-23.19367 306.47606,-25.18017 306.54635,-27.28717 306.61666,-29.39417 307.1086,-31.36067 308.02228,-33.18767 308.93442,-35.01367 310.14639,-36.59417 311.65825,-37.92967 313.16854,-39.26317 314.94123,-40.31617 316.97784,-41.09067 319.01605,-41.86217 321.19324,-42.21367 323.51103,-42.14467 326.53162,-42.00267 329.2539,-41.26567 331.67786,-39.93167 333.78633,-38.76967 335.50747,-37.26417 336.84594,-35.41167 337.17709,-34.95417 337.06304,-34.31067 336.59764,-33.98917 L 329.39285,-29.01467 C 328.96181,-28.71767 328.38549,-28.80517 328.04343,-29.20217 327.64828,-29.66267 327.13758,-30.07817 326.51441,-30.44817 325.56637,-31.00917 324.49338,-31.29167 323.30013,-31.29167 321.68367,-31.36067 320.29829,-30.97467 319.13942,-30.13267 317.97895,-29.28967 317.40108,-28.26967 317.40108,-27.07617 317.40108,-26.72317 317.43558,-26.47967 317.50578,-26.33767 317.64478,-25.56467 317.99618,-24.89767 318.56001,-24.33667 319.10978,-23.78417 319.79852,-23.33267 320.62161,-22.98567 320.65111,-22.97167 320.67941,-22.95917 320.70751,-22.94217 322.03195,-22.17667 323.54535,-21.39417 325.25086,-20.59617 326.96266,-19.79217 328.6916,-18.90167 330.43929,-17.92417 330.45829,-17.91317 330.47679,-17.90517 330.49549,-17.89567 331.73561,-17.33967 332.97728,-16.54967 334.21735,-15.52017 334.24535,-15.49667 334.272,-15.47367 334.2986,-15.44667 L 334.78585,-14.95817 C 335.47931,-14.33467 336.24303,-13.50417 337.07395,-12.46867"
       id="path1267-8" />
    <path
       inkscape:connector-curvature="0"
       style="fill:#000000;stroke-width:0.39982992"
       d="M 372.92902,3.05933 C 375.31709,3.05933 377.54738,2.60033 379.61994,1.68183 381.69094,0.76333 383.50108,-0.47367 385.0473,-2.02917 386.59197,-3.58317 387.82113,-5.40417 388.73482,-7.48917 389.6469,-9.57267 390.10455,-11.78267 390.10455,-14.11467 390.10455,-16.51817 389.6469,-18.76117 388.73482,-20.84617 387.82113,-22.93117 386.59197,-24.75217 385.0473,-26.30617 383.50108,-27.86217 381.69094,-29.09867 379.61994,-30.01867 377.54738,-30.93717 375.31709,-31.39617 372.92902,-31.39617 370.53944,-31.39617 368.30915,-30.93717 366.23815,-30.01867 364.16558,-29.09867 362.35695,-27.86217 360.81233,-26.30617 359.26612,-24.75217 358.03692,-22.93117 357.12326,-20.84617 356.21113,-18.76117 355.75353,-16.51817 355.75353,-14.11467 355.75353,-11.78267 356.21113,-9.57267 357.12326,-7.48917 358.03692,-5.40417 359.26612,-3.58317 360.81233,-2.02917 362.35695,-0.47367 364.16558,0.76333 366.23815,1.68183 368.30915,2.60033 370.53944,3.05933 372.92902,3.05933 M 372.87592,-42.24967 C 376.73369,-42.24967 380.36026,-41.51217 383.76193,-40.03667 387.16361,-38.56217 390.14202,-36.55967 392.70189,-34.03117 395.26017,-31.50117 397.2765,-28.51617 398.74932,-25.07417 400.22057,-21.63167 400.95774,-17.97867 400.95774,-14.11467 V 12.16483 C 400.95774,12.72233 400.50479,13.17533 399.94724,13.17533 H 391.11505 C 390.55748,13.17533 390.10455,12.72233 390.10455,12.16483 V 10.01883 C 390.10455,9.21933 389.21585,8.73033 388.54737,9.17083 386.58418,10.46733 384.46943,11.52583 382.20163,12.34733 379.32162,13.39083 376.23078,13.91233 372.92902,13.91233 369.06507,13.91233 365.43065,13.17533 362.0243,11.69933 358.61483,10.22483 355.6489,8.22283 353.12029,5.69433 350.59168,3.16533 348.58937,0.19783 347.115,-3.20967 345.63751,-6.61617 344.90191,-10.25217 344.90191,-14.11467 344.90191,-17.97867 345.63595,-21.63167 347.10876,-25.07417 348.58159,-28.51617 350.57917,-31.50117 353.1031,-34.03117 355.62702,-36.55967 358.58984,-38.56217 361.98995,-40.03667 365.39162,-41.51217 369.02132,-42.24967 372.87592,-42.24967"
       id="path1269-3" />
    <path
       inkscape:connector-curvature="0"
       style="fill:#000000;stroke-width:0.39982992"
       d="M 419.71228,-41.34367 V 12.26933 C 419.71228,12.82833 419.25934,13.27983 418.70175,13.27983 H 409.86959 C 409.31198,13.27983 408.85906,12.82833 408.85906,12.26933 V -41.34367 C 408.85906,-41.90117 409.31196,-42.35417 409.86959,-42.35417 H 418.70175 C 419.25932,-42.35417 419.71228,-41.90117 419.71228,-41.34367 M 408.85906,-49.05617 V -57.88667 C 408.85906,-58.44567 409.31196,-58.89717 409.86959,-58.89717 H 418.70175 C 419.25932,-58.89717 419.71228,-58.44567 419.71228,-57.88667 V -49.05617 C 419.71228,-48.49867 419.25934,-48.04567 418.70175,-48.04567 H 409.86959 C 409.31198,-48.04567 408.85906,-48.49867 408.85906,-49.05617"
       id="path1271-7" />
  </g>
</svg>
