<?xml version="1.0" encoding="UTF-8" standalone="no"?>
<svg
   xmlns:dc="http://purl.org/dc/elements/1.1/"
   xmlns:cc="http://creativecommons.org/ns#"
   xmlns:rdf="http://www.w3.org/1999/02/22-rdf-syntax-ns#"
   xmlns:svg="http://www.w3.org/2000/svg"
   xmlns="http://www.w3.org/2000/svg"
   xmlns:sodipodi="http://sodipodi.sourceforge.net/DTD/sodipodi-0.dtd"
   xmlns:inkscape="http://www.inkscape.org/namespaces/inkscape"
   width="237.40239"
   height="453.5433"
   id="SvgGdi_output"
   version="1.1"
   sodipodi:docname="branching-simple.svg"
   inkscape:version="0.92.3 (2405546, 2018-03-11)"
   viewBox="0 0 118.70119 226.77165">
  <metadata
     id="metadata38">
    <rdf:RDF>
      <cc:Work
         rdf:about="">
        <dc:format>image/svg+xml</dc:format>
        <dc:type
           rdf:resource="http://purl.org/dc/dcmitype/StillImage" />
        <dc:title />
      </cc:Work>
    </rdf:RDF>
  </metadata>
  <sodipodi:namedview
     pagecolor="#ffffff"
     bordercolor="#666666"
     borderopacity="1"
     objecttolerance="10"
     gridtolerance="10"
     guidetolerance="10"
     inkscape:pageopacity="0"
     inkscape:pageshadow="2"
     inkscape:window-width="3000"
     inkscape:window-height="1875"
     id="namedview36"
     showgrid="false"
     inkscape:zoom="2.5439219"
     inkscape:cx="48.319967"
     inkscape:cy="263.72067"
     inkscape:window-x="-13"
     inkscape:window-y="-13"
     inkscape:window-maximized="1"
     inkscape:current-layer="SvgGdi_output"
     fit-margin-top="0"
     fit-margin-left="0"
     fit-margin-right="0"
     fit-margin-bottom="0" />
  <defs
     id="clips_hatches_and_gradients">
    <clipPath
       id="264_text_clipper-5">
      <rect
         x="166"
         y="76"
         width="134.53"
         height="26.389999"
         id="265-7" />
    </clipPath>
    <clipPath
       id="276_text_clipper-5">
      <rect
         x="166"
         y="236"
         width="103.3"
         height="26.389999"
         id="277-1" />
    </clipPath>
    <clipPath
       id="288_text_clipper-3">
      <rect
         x="6"
         y="76"
         width="83.940002"
         height="52.790001"
         id="289-8" />
    </clipPath>
    <clipPath
       id="294_text_clipper-6">
      <rect
         x="6"
         y="99.769997"
         width="83.940002"
         height="52.790001"
         id="295-5" />
    </clipPath>
    <clipPath
       id="486_text_clipper">
      <rect
         x="126"
         y="58.5"
         width="100.9"
         height="19.799999"
         id="487" />
    </clipPath>
    <clipPath
       id="495_text_clipper">
      <rect
         x="126"
         y="178.5"
         width="77.480003"
         height="19.799999"
         id="496" />
    </clipPath>
    <clipPath
       id="505_text_clipper">
      <rect
         x="6"
         y="58.5"
         width="62.950001"
         height="39.59"
         id="506" />
    </clipPath>
    <clipPath
       id="511_text_clipper">
      <rect
         x="6"
         y="76.330002"
         width="62.950001"
         height="39.59"
         id="512" />
    </clipPath>
  </defs>
  <text
     xml:space="preserve"
     style="font-size:10px;line-height:1.25;font-family:sans-serif;letter-spacing:0px;word-spacing:0px;fill:#000000;stroke-width:0.5"
     x="23.301769"
     y="19.218111"
     id="text225"><tspan
       sodipodi:role="line"
       id="tspan223"
       x="23.301769"
       y="19.218111">Branching</tspan><tspan
       sodipodi:role="line"
       x="23.301769"
       y="31.718111"
       id="tspan227" /></text>
  <g
     transform="matrix(0.49999999,0,0,0.49999999,3.1035042,52.840824)"
     id="root_group">
    <line
       y1="28.5"
       style="fill:none;stroke:#a9a9a9;stroke-width:1.5;stroke-miterlimit:9"
       id="479"
       x2="120"
       y2="28.5"
       x1="57" />
    <line
       y1="28.5"
       style="fill:none;stroke:#a9a9a9;stroke-width:1.5;stroke-miterlimit:9"
       id="480"
       x2="120"
       y2="148.5"
       x1="57" />
    <circle
       r="15"
       id="481"
       cy="15"
       cx="15"
       transform="matrix(1.5,0,0,1.5,126,6)"
       style="fill:#449adf" />
    <path
       inkscape:connector-curvature="0"
       d="M 18.422,13 13.4357,18.5006 10.8556,15.9868 6.500101,20.5001 23.9571,20.48582 Z"
       style="fill:#ffffff;fill-rule:evenodd"
       transform="matrix(1.5,0,0,1.5,126,6)"
       id="482" />
    <circle
       r="2.75"
       id="483"
       cy="10.96"
       cx="10.92"
       transform="matrix(1.5,0,0,1.5,126,6)"
       style="fill:#ffffff" />
    <text
       id="484"
       x="126"
       y="58.5"
       style="font-size:15.74666691px;font-family:'Microsoft Sans Serif';fill:#000000"
       clip-path="url(#486_text_clipper)">
      <tspan
         dy="11.81pt"
         id="488">ConvertColor</tspan>
    </text>
    <circle
       r="15"
       id="490"
       cy="15"
       cx="15"
       transform="matrix(1.5,0,0,1.5,126,126)"
       style="fill:#449adf" />
    <path
       inkscape:connector-curvature="0"
       d="M 18.422,13 13.4357,18.5006 10.8556,15.9868 6.500101,20.5001 23.9571,20.48582 Z"
       style="fill:#ffffff;fill-rule:evenodd"
       transform="matrix(1.5,0,0,1.5,126,126)"
       id="491" />
    <circle
       r="2.75"
       id="492"
       cy="10.96"
       cx="10.92"
       transform="matrix(1.5,0,0,1.5,126,126)"
       style="fill:#ffffff" />
    <text
       id="493"
       x="126"
       y="178.5"
       style="font-size:15.74666691px;font-family:'Microsoft Sans Serif';fill:#000000"
       clip-path="url(#495_text_clipper)">
      <tspan
         dy="11.81pt"
         id="497">Threshold</tspan>
    </text>
    <path
       inkscape:connector-curvature="0"
       transform="matrix(1.5,0,0,1.5,6,6)"
       id="499"
       d="M 31.179,5.2 C 34.9985,11.0918 34.9814,18.682 31.13552,24.557"
       style="fill:none;stroke:#a9a9a9;stroke-width:2;stroke-miterlimit:9" />
    <circle
       r="15"
       id="500"
       cy="15"
       cx="15"
       transform="matrix(1.5,0,0,1.5,6,6)"
       style="fill:#5bb27e" />
    <path
       inkscape:connector-curvature="0"
       style="fill:#ffffff;fill-rule:evenodd"
       transform="matrix(1.5,0,0,1.5,6,6)"
       id="501"
       d="M 23.75,9.1 19.5587,11.5211 V 18.3937 L 23.75,20.8147 Z" />
    <path
       inkscape:connector-curvature="0"
       style="fill:#ffffff;fill-rule:evenodd"
       transform="matrix(1.5,0,0,1.5,6,6)"
       id="502"
       d="M 8.6927,9.2 H 15.7194 C 17.19,9.2 18.3739,10.4337 18.3739,11.9661 V 17.8234 C 18.3739,19.3558 17.19,20.5893 15.7194,20.5893 H 8.692701 C 7.222101,20.5893 6.038201,19.3558 6.038201,17.8234 V 11.9661 C 6.038201,10.4337 7.222101,9.199999 8.692701,9.199999 Z" />
    <text
       id="503"
       x="6"
       y="58.5"
       style="font-size:15.74666691px;font-family:'Microsoft Sans Serif';fill:#000000"
       clip-path="url(#505_text_clipper)">
      <tspan
         dy="11.81pt"
         id="507">Camera</tspan>
    </text>
    <text
       id="509"
       x="6"
       y="76.330002"
       style="font-size:15.74666691px;font-family:'Microsoft Sans Serif';fill:#000000"
       clip-path="url(#511_text_clipper)">
      <tspan
         dy="11.81pt"
         id="513">Capture</tspan>
    </text>
  </g>
</svg>
