<?xml version="1.0" encoding="UTF-8" standalone="no"?>
<svg
   xmlns:dc="http://purl.org/dc/elements/1.1/"
   xmlns:cc="http://creativecommons.org/ns#"
   xmlns:rdf="http://www.w3.org/1999/02/22-rdf-syntax-ns#"
   xmlns:svg="http://www.w3.org/2000/svg"
   xmlns="http://www.w3.org/2000/svg"
   xmlns:sodipodi="http://sodipodi.sourceforge.net/DTD/sodipodi-0.dtd"
   xmlns:inkscape="http://www.inkscape.org/namespaces/inkscape"
   width="150mm"
   height="63.647541mm"
   id="SvgGdi_output"
   version="1.1"
   sodipodi:docname="buffer-movingaverage.svg"
   inkscape:version="0.92.3 (2405546, 2018-03-11)">
  <metadata
     id="metadata50">
    <rdf:RDF>
      <cc:Work
         rdf:about="">
        <dc:format>image/svg+xml</dc:format>
        <dc:type
           rdf:resource="http://purl.org/dc/dcmitype/StillImage" />
        <dc:title></dc:title>
      </cc:Work>
    </rdf:RDF>
  </metadata>
  <sodipodi:namedview
     pagecolor="#ffffff"
     bordercolor="#666666"
     borderopacity="1"
     objecttolerance="10"
     gridtolerance="10"
     guidetolerance="10"
     inkscape:pageopacity="0"
     inkscape:pageshadow="2"
     inkscape:window-width="3000"
     inkscape:window-height="1875"
     id="namedview48"
     showgrid="false"
     units="mm"
     inkscape:zoom="1.1096326"
     inkscape:cx="269.00797"
     inkscape:cy="39.147587"
     inkscape:window-x="-13"
     inkscape:window-y="-13"
     inkscape:window-maximized="1"
     inkscape:current-layer="SvgGdi_output" />
  <g
     id="root_group"
     transform="translate(14.964567,80.059374)">
    <line
       y1="28.5"
       style="fill:none;stroke:#a9a9a9;stroke-width:1.5;stroke-miterlimit:9"
       id="245"
       x2="480"
       y2="28.5"
       x1="417" />
    <line
       y1="28.5"
       style="fill:none;stroke:#a9a9a9;stroke-width:1.5;stroke-miterlimit:9"
       id="246"
       x2="360"
       y2="28.5"
       x1="297" />
    <line
       y1="28.5"
       style="fill:none;stroke:#a9a9a9;stroke-width:1.5;stroke-miterlimit:9"
       id="247"
       x2="240"
       y2="28.5"
       x1="177" />
    <line
       y1="28.5"
       style="fill:none;stroke:#a9a9a9;stroke-width:1.5;stroke-miterlimit:9"
       id="248"
       x2="120"
       y2="28.5"
       x1="57" />
    <circle
       id="249"
       cy="15"
       cx="15"
       transform="matrix(1.5,0,0,1.5,486,6)"
       style="fill:#449adf"
       r="15" />
    <path
       d="M 16.849,10.062 H 23.4027 M 16.6038,19.6084 H 23.3505 M 12.3075,17.1615 7.5719,21.8971 M 7.577335,17.152 12.31704,21.8917 M 6.564136,10.0047 H 13.30904 M 9.936636,6.6288 V 13.3806"
       style="fill:none;stroke:#ffffff;stroke-width:2;stroke-miterlimit:9"
       transform="matrix(1.5,0,0,1.5,486,6)"
       id="250"
       inkscape:connector-curvature="0" />
    <circle
       id="251"
       cy="16.33"
       cx="19.93"
       transform="matrix(1.5,0,0,1.5,486,6)"
       style="fill:#ffffff"
       r="1.3" />
    <circle
       id="252"
       cy="22.83"
       cx="19.93"
       transform="matrix(1.5,0,0,1.5,486,6)"
       style="fill:#ffffff"
       r="1.3" />
    <text
       id="253"
       x="486"
       y="58.5"
       style="font-size:15.74666691px;font-family:'Microsoft Sans Serif';fill:#000000"
       clip-path="url(#255_text_clipper)">
      <tspan
         dy="11.81pt"
         id="257">Divide</tspan>
    </text>
    <circle
       id="259"
       cy="15"
       cx="15"
       transform="matrix(1.5,0,0,1.5,366,6)"
       style="fill:#449adf"
       r="15" />
    <path
       d="M 16.849,10.062 H 23.4027 M 16.6038,19.6084 H 23.3505 M 12.3075,17.1615 7.5719,21.8971 M 7.577335,17.152 12.31704,21.8917 M 6.564136,10.0047 H 13.30904 M 9.936636,6.6288 V 13.3806"
       style="fill:none;stroke:#ffffff;stroke-width:2;stroke-miterlimit:9"
       transform="matrix(1.5,0,0,1.5,366,6)"
       id="260"
       inkscape:connector-curvature="0" />
    <circle
       id="261"
       cy="16.33"
       cx="19.93"
       transform="matrix(1.5,0,0,1.5,366,6)"
       style="fill:#ffffff"
       r="1.3" />
    <circle
       id="262"
       cy="22.83"
       cx="19.93"
       transform="matrix(1.5,0,0,1.5,366,6)"
       style="fill:#ffffff"
       r="1.3" />
    <text
       id="263"
       x="366"
       y="58.5"
       style="font-size:15.74666691px;font-family:'Microsoft Sans Serif';fill:#000000"
       clip-path="url(#265_text_clipper)">
      <tspan
         dy="11.81pt"
         id="267">Add</tspan>
    </text>
    <circle
       id="269"
       cy="15"
       cx="15"
       transform="matrix(1.5,0,0,1.5,246,6)"
       style="fill:#eec04b"
       r="15" />
    <path
       style="fill:#ffffff;fill-rule:evenodd"
       transform="matrix(1.5,0,0,1.5,246,6)"
       id="270"
       d="M 12.246,6.0137 V 6.019559 C 12.05806,6.020259 11.89471,6.040434 11.76748,6.066434 10.86869,6.352735 10.89631,6.934374 9.87688,7.685534 8.863379,8.264335 8.35338,7.819914 7.61518,8.419914 6.87845,9.015514 7.39292,10.38251 7.08393,10.64841 6.77722,11.18001 5.82553,11.65471 5.65233,12.32611 5.50916,13.18481 6.04191,13.79701 6.02147,14.53311 6.08287,15.14641 5.41127,15.49489 5.5078,15.99211 5.79702,16.80421 6.35438,17.29221 6.6172,17.51751 6.663351,17.54951 6.700028,17.5985 6.714856,17.6015 6.790713,17.792 6.858586,17.98645 6.955086,18.16595 6.949606,18.13995 6.948576,18.11382 6.943367,18.08782 6.998228,18.30542 7.055077,18.52401 7.132816,18.73821 8.683116,22.09901 12.81412,24.68611 17.34182,24.11711 19.54102,23.84771 22.82442,22.33171 24.16602,18.73821 23.22044,19.58671 21.53152,20.32421 20.77732,20.38081 23.33002,19.10511 24.70712,16.93741 24.32031,13.97461 23.79154,15.23341 23.09341,16.20131 22.22071,16.86521 24.07451,13.97551 23.75691,12.48131 22.38478,10.83981 23.36615,13.53881 22.09719,16.53431 19.33208,18.66401 20.45238,18.78541 21.51657,18.51614 22.50198,17.71284 21.01318,19.37354 19.14968,20.20834 17.01368,20.43554 18.03358,21.30254 19.01818,21.69454 19.95898,21.52734 17.34458,22.24884 15.15478,21.45428 12.49018,18.80074 12.3507,19.51504 13.10514,20.62754 13.88278,21.33784 9.373278,19.38284 8.976177,13.29584 14.46872,11.79294 14.47202,11.79294 14.47518,11.79384 14.47848,11.79294 17.74978,13.70674 21.86528,13.58084 22.05078,12.34372 22.50885,10.86082 19.96508,7.805223 16.16208,7.007823 15.4618,6.871123 14.79228,6.817344 14.15428,6.835943 14.16706,6.835943 14.17858,6.836182 14.19139,6.826178 13.58399,6.177278 12.80989,6.011678 12.24609,6.013678 Z M 17.17769,9.046878 C 17.72373,9.046878 18.22259,9.543848 18.22259,10.08988 18.22259,10.63598 17.72371,11.13288 17.17769,11.13288 16.63165,11.13288 16.13469,10.63601 16.13469,10.08988 16.13474,9.543879 16.63162,9.046778 17.17769,9.046878 Z"
       inkscape:connector-curvature="0" />
    <text
       id="271"
       x="246"
       y="58.5"
       style="font-size:15.74666691px;font-family:'Microsoft Sans Serif';fill:#000000"
       clip-path="url(#273_text_clipper)">
      <tspan
         dy="11.81pt"
         id="275">Buffer</tspan>
    </text>
    <circle
       id="277"
       cy="15"
       cx="15"
       transform="matrix(1.5,0,0,1.5,126,6)"
       style="fill:#449adf"
       r="15" />
    <path
       style="fill:#ffffff;fill-rule:evenodd"
       transform="matrix(1.5,0,0,1.5,126,6)"
       id="278"
       d="M 19.156,13.888 V 10.3647 6.841399 L 25.2585,10.3647 22.2072,12.1264 Z"
       inkscape:connector-curvature="0" />
    <path
       style="fill:#ffffff;fill-rule:evenodd"
       transform="matrix(1.5,0,0,1.5,126,6)"
       id="279"
       d="M 19.156,22.97 V 19.4467 15.9234 L 25.2585,19.4467 22.2072,21.2084 Z"
       inkscape:connector-curvature="0" />
    <path
       style="fill:none;stroke:#ffffff;stroke-width:2;stroke-miterlimit:9"
       transform="matrix(1.5,0,0,1.5,126,6)"
       id="280"
       d="M 5.5001,19.484 H 10.6493 L 16.2743,10.2485 H 19.3728 M 14.6769,17.1481 16.3089,19.4828 H 19.2202 M 5.500199,10.2437 H 10.7586 L 12.1652,12.8707"
       inkscape:connector-curvature="0" />
    <text
       id="281"
       x="126"
       y="58.5"
       style="font-size:15.74666691px;font-family:'Microsoft Sans Serif';fill:#000000"
       clip-path="url(#283_text_clipper)">
      <tspan
         dy="11.81pt"
         id="285">X</tspan>
    </text>
    <path
       transform="matrix(1.5,0,0,1.5,6,6)"
       id="287"
       style="fill:none;stroke:#a9a9a9;stroke-width:2;stroke-miterlimit:9"
       d="M 31.179,5.2 C 34.9985,11.0918 34.9814,18.682 31.13552,24.557"
       inkscape:connector-curvature="0" />
    <circle
       id="288"
       cy="15"
       cx="15"
       transform="matrix(1.5,0,0,1.5,6,6)"
       style="fill:#5bb27e"
       r="15" />
    <path
       style="fill:#ffffff;fill-rule:evenodd"
       transform="matrix(1.5,0,0,1.5,6,6)"
       id="289"
       d="M 8.5404,18.526 C 8.154759,18.14036 8.426559,17.3734 8.7512,17.0487 9.0693,16.7306 9.8857,16.65478 10.3397,17.03595 L 12.5301,18.80525 12.82094,9.664146 C 12.82094,9.305857 13.42471,8.739877 14.05254,8.739877 14.79871,8.739877 15.36764,9.316096 15.36764,9.695367 L 15.5586,15.04327 20.0645,16.74627 C 20.25033,16.81 20.49544,16.99536 20.49518,17.22225 L 20.49808,21.04985 19.11318,23.37955 V 24.51755 H 13.23218 V 23.37955 Z"
       inkscape:connector-curvature="0" />
    <path
       style="fill:none;stroke:#ffffff;stroke-width:2;stroke-miterlimit:9"
       transform="matrix(1.5,0,0,1.5,6,6)"
       id="290"
       d="M 10.482,12.156 C 9.063601,9.8878 10.57304,6.5688 13.2149,6.1474 15.8164,5.52346 18.4832,8.0098 18.0432,10.6485 L 17.97693,11.02591"
       inkscape:connector-curvature="0" />
    <text
       id="291"
       x="6"
       y="58.5"
       style="font-size:15.74666691px;font-family:'Microsoft Sans Serif';fill:#000000"
       clip-path="url(#293_text_clipper)">
      <tspan
         dy="11.81pt"
         id="295">MouseMove</tspan>
    </text>
  </g>
  <defs
     id="clips_hatches_and_gradients">
    <clipPath
       id="255_text_clipper">
      <rect
         x="486"
         y="58.5"
         width="50.52"
         height="19.799999"
         id="256" />
    </clipPath>
    <clipPath
       id="265_text_clipper">
      <rect
         x="366"
         y="58.5"
         width="34.110001"
         height="19.799999"
         id="266" />
    </clipPath>
    <clipPath
       id="273_text_clipper">
      <rect
         x="246"
         y="58.5"
         width="48.52"
         height="19.799999"
         id="274" />
    </clipPath>
    <clipPath
       id="283_text_clipper">
      <rect
         x="126"
         y="58.5"
         width="16.07"
         height="19.799999"
         id="284" />
    </clipPath>
    <clipPath
       id="293_text_clipper">
      <rect
         x="6"
         y="58.5"
         width="93.610001"
         height="19.799999"
         id="294" />
    </clipPath>
  </defs>
</svg>
