<?xml version="1.0" encoding="UTF-8" standalone="no"?>
<svg
   xmlns:dc="http://purl.org/dc/elements/1.1/"
   xmlns:cc="http://creativecommons.org/ns#"
   xmlns:rdf="http://www.w3.org/1999/02/22-rdf-syntax-ns#"
   xmlns:svg="http://www.w3.org/2000/svg"
   xmlns="http://www.w3.org/2000/svg"
   xmlns:sodipodi="http://sodipodi.sourceforge.net/DTD/sodipodi-0.dtd"
   xmlns:inkscape="http://www.inkscape.org/namespaces/inkscape"
   width="150mm"
   height="83.062477mm"
   id="SvgGdi_output"
   version="1.1"
   sodipodi:docname="higherorder-concatfiles-1.svg"
   inkscape:version="0.92.3 (2405546, 2018-03-11)">
  <metadata
     id="metadata45">
    <rdf:RDF>
      <cc:Work
         rdf:about="">
        <dc:format>image/svg+xml</dc:format>
        <dc:type
           rdf:resource="http://purl.org/dc/dcmitype/StillImage" />
        <dc:title></dc:title>
      </cc:Work>
    </rdf:RDF>
  </metadata>
  <sodipodi:namedview
     pagecolor="#ffffff"
     bordercolor="#666666"
     borderopacity="1"
     objecttolerance="10"
     gridtolerance="10"
     guidetolerance="10"
     inkscape:pageopacity="0"
     inkscape:pageshadow="2"
     inkscape:window-width="3000"
     inkscape:window-height="1875"
     id="namedview43"
     showgrid="false"
     units="mm"
     inkscape:zoom="1.9628788"
     inkscape:cx="324.91745"
     inkscape:cy="104.74705"
     inkscape:window-x="-13"
     inkscape:window-y="-13"
     inkscape:window-maximized="1"
     inkscape:current-layer="SvgGdi_output" />
  <g
     id="root_group"
     transform="translate(14.57207,47.085531)">
    <line
       y1="28.5"
       style="fill:none;stroke:#a9a9a9;stroke-width:1.5;stroke-miterlimit:9"
       id="370"
       x2="240"
       y2="28.5"
       x1="177" />
    <line
       y1="28.5"
       style="fill:none;stroke:#a9a9a9;stroke-width:1.5;stroke-miterlimit:9"
       id="371"
       x2="120"
       y2="28.5"
       x1="57" />
    <circle
       id="372"
       cy="15"
       cx="15"
       transform="matrix(1.5,0,0,1.5,246,6)"
       style="fill:#eec04b"
       r="15" />
    <path
       transform="matrix(1.5,0,0,1.5,246,6)"
       id="373"
       d="M 12.246,6.0137 V 6.019559 C 12.05806,6.020259 11.89471,6.040434 11.76748,6.066434 10.86869,6.352735 10.89631,6.934374 9.87688,7.685534 8.863379,8.264335 8.35338,7.819914 7.61518,8.419914 6.87845,9.015514 7.39292,10.38251 7.08393,10.64841 6.77722,11.18001 5.82553,11.65471 5.65233,12.32611 5.50916,13.18481 6.04191,13.79701 6.02147,14.53311 6.08287,15.14641 5.41127,15.49489 5.5078,15.99211 5.79702,16.80421 6.35438,17.29221 6.6172,17.51751 6.663351,17.54951 6.700028,17.5985 6.714856,17.6015 6.790713,17.792 6.858586,17.98645 6.955086,18.16595 6.949606,18.13995 6.948576,18.11382 6.943367,18.08782 6.998228,18.30542 7.055077,18.52401 7.132816,18.73821 8.683116,22.09901 12.81412,24.68611 17.34182,24.11711 19.54102,23.84771 22.82442,22.33171 24.16602,18.73821 23.22044,19.58671 21.53152,20.32421 20.77732,20.38081 23.33002,19.10511 24.70712,16.93741 24.32031,13.97461 23.79154,15.23341 23.09341,16.20131 22.22071,16.86521 24.07451,13.97551 23.75691,12.48131 22.38478,10.83981 23.36615,13.53881 22.09719,16.53431 19.33208,18.66401 20.45238,18.78541 21.51657,18.51614 22.50198,17.71284 21.01318,19.37354 19.14968,20.20834 17.01368,20.43554 18.03358,21.30254 19.01818,21.69454 19.95898,21.52734 17.34458,22.24884 15.15478,21.45428 12.49018,18.80074 12.3507,19.51504 13.10514,20.62754 13.88278,21.33784 9.373278,19.38284 8.976177,13.29584 14.46872,11.79294 14.47202,11.79294 14.47518,11.79384 14.47848,11.79294 17.74978,13.70674 21.86528,13.58084 22.05078,12.34372 22.50885,10.86082 19.96508,7.805223 16.16208,7.007823 15.4618,6.871123 14.79228,6.817344 14.15428,6.835943 14.16706,6.835943 14.17858,6.836182 14.19139,6.826178 13.58399,6.177278 12.80989,6.011678 12.24609,6.013678 Z M 17.17769,9.046878 C 17.72373,9.046878 18.22259,9.543848 18.22259,10.08988 18.22259,10.63598 17.72371,11.13288 17.17769,11.13288 16.63165,11.13288 16.13469,10.63601 16.13469,10.08988 16.13474,9.543879 16.63162,9.046778 17.17769,9.046878 Z"
       style="fill:#ffffff;fill-rule:evenodd"
       inkscape:connector-curvature="0" />
    <circle
       id="374"
       cy="28.5"
       cx="246"
       style="fill:none;stroke:#a9a9a9;stroke-width:3;stroke-miterlimit:9"
       r="4.5" />
    <circle
       id="375"
       cy="28.5"
       cx="246"
       style="fill:#ffffff"
       r="4.5" />
    <text
       id="376"
       x="246"
       y="58.5"
       style="font-size:15.74666691px;font-family:'Microsoft Sans Serif';fill:#000000"
       clip-path="url(#378_text_clipper)">
      <tspan
         dy="11.81pt"
         id="380">Concat</tspan>
    </text>
    <circle
       id="382"
       cy="15"
       cx="15"
       transform="matrix(1.5,0,0,1.5,126,6)"
       style="fill:#eec04b"
       r="15" />
    <circle
       id="383"
       cy="15"
       cx="15"
       transform="matrix(1.5,0,0,1.5,126,6)"
       style="fill:none;stroke:#a9a9a9;stroke-width:2;stroke-miterlimit:9"
       r="15" />
    <path
       style="fill:none;stroke:#ffffff;stroke-width:2;stroke-miterlimit:9"
       transform="matrix(1.5,0,0,1.5,126,6)"
       id="384"
       d="M 17.685,10.264 9.851999,15.0121 17.7401,19.7936"
       inkscape:connector-curvature="0" />
    <circle
       id="385"
       cy="15.09"
       cx="8.9099998"
       transform="matrix(1.5,0,0,1.5,126,6)"
       style="fill:#ffffff"
       r="3.4100001" />
    <circle
       id="386"
       cy="8.9799995"
       cx="19.82"
       transform="matrix(1.5,0,0,1.5,126,6)"
       style="fill:none;stroke:#ffffff;stroke-width:2;stroke-miterlimit:9"
       r="2.5" />
    <circle
       id="387"
       cy="21.07"
       cx="19.889999"
       transform="matrix(1.5,0,0,1.5,126,6)"
       style="fill:none;stroke:#ffffff;stroke-width:2;stroke-miterlimit:9"
       r="2.5" />
    <text
       id="388"
       x="126"
       y="58.5"
       style="font-size:15.74666691px;font-family:'Microsoft Sans Serif';fill:#000000"
       clip-path="url(#390_text_clipper)">
      <tspan
         dy="11.81pt"
         id="392">Create</tspan>
    </text>
    <text
       id="394"
       x="126"
       y="76.330002"
       style="font-size:15.74666691px;font-family:'Microsoft Sans Serif';fill:#000000"
       clip-path="url(#396_text_clipper)">
      <tspan
         dy="11.81pt"
         id="398">Observable</tspan>
    </text>
    <path
       style="fill:none;stroke:#a9a9a9;stroke-width:2;stroke-miterlimit:9"
       transform="matrix(1.5,0,0,1.5,6,6)"
       id="400"
       d="M 31.179,5.2 C 34.9985,11.0918 34.9814,18.682 31.13552,24.557"
       inkscape:connector-curvature="0" />
    <circle
       id="401"
       cy="15"
       cx="15"
       transform="matrix(1.5,0,0,1.5,6,6)"
       style="fill:#5bb27e"
       r="15" />
    <path
       style="fill:none;stroke:#ffffff;stroke-width:2;stroke-miterlimit:9"
       transform="matrix(1.5,0,0,1.5,6,6)"
       id="402"
       d="M 7.3965,19.566 V 10.8433"
       inkscape:connector-curvature="0" />
    <path
       style="fill:none;stroke:#ffffff;stroke-width:2;stroke-miterlimit:9"
       transform="matrix(1.5,0,0,1.5,6,6)"
       id="403"
       d="M 11.085,22.137 14.2178,8.273999"
       inkscape:connector-curvature="0" />
    <circle
       id="404"
       cy="15.15"
       cx="20.49"
       transform="matrix(1.5,0,0,1.5,6,6)"
       style="fill:none;stroke:#ffffff;stroke-width:2;stroke-miterlimit:9"
       r="4.1799998" />
    <text
       id="405"
       x="6"
       y="58.5"
       style="font-size:15.74666691px;font-family:'Microsoft Sans Serif';fill:#000000"
       clip-path="url(#407_text_clipper)">
      <tspan
         dy="11.81pt"
         id="409">Enumerate</tspan>
    </text>
    <text
       id="411"
       x="6"
       y="76.330002"
       style="font-size:15.74666691px;font-family:'Microsoft Sans Serif';fill:#000000"
       clip-path="url(#413_text_clipper)">
      <tspan
         dy="11.81pt"
         id="415">Files</tspan>
    </text>
  </g>
  <defs
     id="clips_hatches_and_gradients">
    <clipPath
       id="378_text_clipper">
      <rect
         x="246"
         y="58.5"
         width="56.650002"
         height="19.799999"
         id="379" />
    </clipPath>
    <clipPath
       id="390_text_clipper">
      <rect
         x="126"
         y="58.5"
         width="88.300003"
         height="39.59"
         id="391" />
    </clipPath>
    <clipPath
       id="396_text_clipper">
      <rect
         x="126"
         y="76.330002"
         width="88.300003"
         height="39.59"
         id="397" />
    </clipPath>
    <clipPath
       id="407_text_clipper">
      <rect
         x="6"
         y="58.5"
         width="84.589996"
         height="39.59"
         id="408" />
    </clipPath>
    <clipPath
       id="413_text_clipper">
      <rect
         x="6"
         y="76.330002"
         width="84.589996"
         height="39.59"
         id="414" />
    </clipPath>
    <clipPath
       id="431_text_clipper">
      <rect
         x="366"
         y="58.5"
         width="72.029999"
         height="39.59"
         id="432" />
    </clipPath>
    <clipPath
       id="437_text_clipper">
      <rect
         x="366"
         y="76.330002"
         width="72.029999"
         height="39.59"
         id="438" />
    </clipPath>
    <clipPath
       id="447_text_clipper">
      <rect
         x="246"
         y="58.5"
         width="89.279999"
         height="19.799999"
         id="448" />
    </clipPath>
    <clipPath
       id="457_text_clipper">
      <rect
         x="126"
         y="58.5"
         width="74.849998"
         height="19.799999"
         id="458" />
    </clipPath>
    <clipPath
       id="468_text_clipper">
      <rect
         x="6"
         y="58.5"
         width="65.669998"
         height="19.799999"
         id="469" />
    </clipPath>
  </defs>
  <g
     transform="translate(134.3692,167.13769)"
     id="root_group-4">
    <line
       y1="28.5"
       style="fill:none;stroke:#a9a9a9;stroke-width:1.5;stroke-miterlimit:9"
       id="421"
       x2="360"
       y2="28.5"
       x1="297" />
    <line
       y1="28.5"
       id="422"
       x2="240"
       y2="28.5"
       x1="177"
       style="fill:none;stroke:#a9a9a9;stroke-width:1.5;stroke-miterlimit:9;stroke-dasharray:6, 3" />
    <line
       y1="28.5"
       style="fill:none;stroke:#a9a9a9;stroke-width:1.5;stroke-miterlimit:9"
       id="423"
       x2="120"
       y2="28.5"
       x1="57" />
    <path
       inkscape:connector-curvature="0"
       style="fill:none;stroke:#a9a9a9;stroke-width:2;stroke-miterlimit:9"
       transform="matrix(1.5,0,0,1.5,366,6)"
       id="424"
       d="M 10.158,33.2 C 3.4054,31.7591 -1.861,26.4692 -3.271,19.71" />
    <circle
       r="15"
       id="425"
       cy="15"
       cx="15"
       transform="matrix(1.5,0,0,1.5,366,6)"
       style="fill:#9b5bb3" />
    <circle
       r="3.5"
       id="426"
       cy="9.0600004"
       cx="15.01"
       transform="matrix(1.5,0,0,1.5,366,6)"
       style="fill:#ffffff" />
    <circle
       r="3.5"
       id="427"
       cy="18.49"
       cx="9.1199999"
       transform="matrix(1.5,0,0,1.5,366,6)"
       style="fill:#ffffff" />
    <circle
       r="3.5"
       id="428"
       cy="18.459999"
       cx="20.879999"
       transform="matrix(1.5,0,0,1.5,366,6)"
       style="fill:#ffffff" />
    <text
       id="429"
       x="366"
       y="58.5"
       style="font-size:15.74666691px;font-family:'Microsoft Sans Serif';fill:#000000"
       clip-path="url(#431_text_clipper)">
      <tspan
         dy="11.81pt"
         id="433">Workflow</tspan>
    </text>
    <text
       id="435"
       x="366"
       y="76.330002"
       style="font-size:15.74666691px;font-family:'Microsoft Sans Serif';fill:#000000"
       clip-path="url(#437_text_clipper)">
      <tspan
         dy="11.81pt"
         id="439">Output</tspan>
    </text>
    <path
       inkscape:connector-curvature="0"
       d="M 31.179,5.2 C 34.9985,11.0918 34.9814,18.682 31.13552,24.557"
       style="fill:none;stroke:#a9a9a9;stroke-width:2;stroke-miterlimit:9"
       transform="matrix(1.5,0,0,1.5,246,6)"
       id="441" />
    <circle
       r="15"
       id="442"
       cy="15"
       cx="15"
       transform="matrix(1.5,0,0,1.5,246,6)"
       style="fill:#5bb27e" />
    <path
       inkscape:connector-curvature="0"
       style="fill:#ffffff;fill-rule:evenodd"
       transform="matrix(1.5,0,0,1.5,246,6)"
       id="443"
       d="M 23.75,9.1 19.5587,11.5211 V 18.3937 L 23.75,20.8147 Z" />
    <path
       inkscape:connector-curvature="0"
       style="fill:#ffffff;fill-rule:evenodd"
       transform="matrix(1.5,0,0,1.5,246,6)"
       id="444"
       d="M 8.6927,9.2 H 15.7194 C 17.19,9.2 18.3739,10.4337 18.3739,11.9661 V 17.8234 C 18.3739,19.3558 17.19,20.5893 15.7194,20.5893 H 8.692701 C 7.222101,20.5893 6.038201,19.3558 6.038201,17.8234 V 11.9661 C 6.038201,10.4337 7.222101,9.199999 8.692701,9.199999 Z" />
    <text
       id="445"
       x="246"
       y="58.5"
       style="font-size:15.74666691px;font-family:'Microsoft Sans Serif';fill:#000000"
       clip-path="url(#447_text_clipper)">
      <tspan
         dy="11.81pt"
         id="449">FileCapture</tspan>
    </text>
    <path
       inkscape:connector-curvature="0"
       transform="matrix(1.5,0,0,1.5,126,6)"
       id="451"
       d="M 15,0 C 15.40124,0 15.79355,0 16.1868,0.032679 L 17.4764,1.671279 C 18.19501,1.803959 18.878,1.976879 19.5521,2.217729 L 21.4286,1.483419 C 22.13968,1.823279 22.8289,2.226899 23.4726,2.670219 L 23.8493,4.621219 C 24.39461,5.086599 24.9133,5.605469 25.3788,6.150719 L 27.3298,6.494379 C 27.77262,7.137679 28.17707,7.860779 28.5166,8.57128 L 27.74584,10.44788 C 27.98674,11.12204 28.19601,11.80508 28.32852,12.52348 L 29.96712,13.81308 C 29.99807,14.2062 30.00009,14.59888 30.00009,14.99988 30.00009,15.39224 29.99671,15.76908 29.96712,16.15388 L 28.32852,17.43998 C 28.19832,18.14633 28.01721,18.85248 27.78226,19.51558 L 28.51657,21.42868 C 28.17593,22.14291 27.77461,22.82648 27.32977,23.47268 L 25.37877,23.81302 C 24.91321,24.35829 24.39455,24.87682 23.84927,25.34242 L 23.47257,27.32992 C 22.82847,27.77371 22.14007,28.17669 21.42857,28.51662 L 19.51567,27.74597 C 18.85121,27.98162 18.18377,28.19809 17.47627,28.32876 L 16.18677,29.93436 C 15.79348,29.965 15.40117,29.99982 14.99997,29.99982 14.59873,29.99982 14.17345,29.96607 13.78017,29.93436 L 12.55997,28.32876 C 11.86172,28.19999 11.14067,27.977 10.48427,27.74597 L 8.571372,28.51662 C 7.856242,28.17558 7.174472,27.7755 6.527372,27.32992 L 6.150662,25.30622 C 5.617232,24.84794 5.114162,24.34789 4.657562,23.81302 L 2.670162,23.47268 C 2.225282,22.82649 1.823962,22.14288 1.483362,21.42868 L 2.254122,19.51558 C 2.022912,18.85918 1.800192,18.13838 1.671442,17.43998 L 0.06584227,16.18678 C 0.03489427,15.79366 -9.272993e-5,15.4013 -9.272993e-5,14.99998 -9.272993e-5,14.59894 0.03489527,14.20625 0.06584227,13.81318 L 1.671442,12.52358 C 1.801892,11.81616 2.018542,11.14888 2.254122,10.48438 L 1.483362,8.571277 C 1.822922,7.860797 2.227392,7.137677 2.670162,6.494377 L 4.657562,6.150717 C 5.114192,5.615747 5.617242,5.115817 6.150662,4.657517 L 6.527372,2.670117 C 7.174102,2.224717 7.856672,1.824207 8.571372,1.483317 L 10.48427,2.217627 C 11.14757,1.982687 11.85387,1.801607 12.55997,1.671177 L 13.84607,0.0325768 C 14.23082,0.0030048 14.60761,-1.021996e-4 14.99987,-1.021996e-4 Z"
       style="fill:#808080;fill-rule:evenodd" />
    <path
       inkscape:connector-curvature="0"
       transform="matrix(1.5,0,0,1.5,126,6)"
       id="452"
       style="fill:none;stroke:#ffffff;stroke-width:2;stroke-miterlimit:9"
       d="M 16.849,10.062 H 23.4027 M 16.6038,19.6084 H 23.3505 M 12.3075,17.1615 7.5719,21.8971 M 7.577335,17.152 12.31704,21.8917 M 6.564136,10.0047 H 13.30904 M 9.936636,6.6288 V 13.3806" />
    <circle
       r="1.3"
       id="453"
       cy="16.33"
       cx="19.93"
       transform="matrix(1.5,0,0,1.5,126,6)"
       style="fill:#ffffff" />
    <circle
       r="1.3"
       id="454"
       cy="22.83"
       cx="19.93"
       transform="matrix(1.5,0,0,1.5,126,6)"
       style="fill:#ffffff" />
    <text
       id="455"
       x="126"
       y="58.5"
       style="font-size:15.74666691px;font-family:'Microsoft Sans Serif';fill:#000000"
       clip-path="url(#457_text_clipper)">
      <tspan
         dy="11.81pt"
         id="459">FileName</tspan>
    </text>
    <path
       inkscape:connector-curvature="0"
       d="M 31.179,5.2 C 34.9985,11.0918 34.9814,18.682 31.13552,24.557"
       style="fill:none;stroke:#a9a9a9;stroke-width:2;stroke-miterlimit:9"
       transform="matrix(1.5,0,0,1.5,6,6)"
       id="461" />
    <circle
       r="15"
       id="462"
       cy="15"
       cx="15"
       transform="matrix(1.5,0,0,1.5,6,6)"
       style="fill:#5bb27e" />
    <circle
       r="3.5"
       id="463"
       cy="9.0600004"
       cx="15.01"
       transform="matrix(1.5,0,0,1.5,6,6)"
       style="fill:#ffffff" />
    <circle
       r="3.5"
       id="464"
       cy="18.49"
       cx="9.1199999"
       transform="matrix(1.5,0,0,1.5,6,6)"
       style="fill:#ffffff" />
    <circle
       r="3.5"
       id="465"
       cy="18.459999"
       cx="20.879999"
       transform="matrix(1.5,0,0,1.5,6,6)"
       style="fill:#ffffff" />
    <text
       id="466"
       x="6"
       y="58.5"
       style="font-size:15.74666691px;font-family:'Microsoft Sans Serif';fill:#000000"
       clip-path="url(#468_text_clipper)">
      <tspan
         dy="11.81pt"
         id="470">Source1</tspan>
    </text>
  </g>
  <path
     style="fill:none;stroke:#000000;stroke-dasharray:1, 3"
     d="M 134.57207,75.585531 V 219.96448"
     id="path940"
     inkscape:connector-curvature="0" />
  <path
     style="fill:none;stroke:#000000;stroke-dasharray:1, 3"
     d="M 191.57207,75.585531 555.30682,176.66074"
     id="path942"
     inkscape:connector-curvature="0"
     sodipodi:nodetypes="cc" />
</svg>
